<svg viewBox="0 0 1548 673" xmlns="http://www.w3.org/2000/svg" fill-rule="evenodd" clip-rule="evenodd" stroke-linecap="round" stroke-linejoin="round" stroke-miterlimit="1.5"><path d="M1135.25 498.39c21.3-8.76 54-53.72 79.7-49.47-2.45-3.41-17.81-50.23-17.72-51.03-26.63 8.94-43.18 37.93-58.13 49.27-4.12 3.13-21.43 21.06-24.83 20.68 3.65-37.56 22.05-39.39 25.49-78.04-7.6-.86-48.5-7.49-57.9-8.54.64 1.8-41.26 231.91-41.79 236.62 6.63.55 47.77 4.99 47.52 7.21-11.83-62.68 15.64-75.73 16.73-102.81 20.95 77.91 60.99 117.94 68.48 149.1h.01c14.12-17.06 45.56-21.88 45.16-23.04h.01c-.44-.14-1-.13-1.32-.49-25.63-29-75.64-88.77-81.39-149.46M862.62 471.72c16.36-117.54 118.92-104.45 187.68-90.78-15.47 19.01-18.36 23.16-14.15 53.83-24.32-1.67-107.3-42.62-121.41 36.96-15.75 88.9 77.65 78.61 100.16 80.16-8.3 25.93-9.08 36.5-4.36 62.87-184.86.39-146.34-125.16-147.84-143.03"/><path d="M716.91 363.71c137.83-9.03 184.95 240.06-5.02 238.76-172.41-1.18-161.53-245.83 5.02-238.76zm-55.18 77.43c7.59-.84 78.85 2.8 106.4-5.03-7.48 9.14-53.85 67.27-57.67 109.32-4.5-11.63-33.6-83.04-48.73-104.29zM1546.27 107.44c-42.22 58.66-82.8 246.85-68.78 251.26-2.44-.29-52.52-14.36-53.06-14.52 13.63.97 26.12-103.02 26.17-103.42-2.69-1.12-61.63-12.54-69.6-16.05-4.35 4.79-30.52 100.82-23.73 103.49-.07-1.42-43.76-10.42-47.2-11.67 13.15 3.75 72.29-236.94 56.5-252.92 9.44 5.15 50.82 7.11 57.86 13.52-24.3 14.61-34.31 91.86-33.57 107.59h-.01c1.67 1.23 68.58 15.23 70.3 15.15 1.47-3.46 40.55-75.08 32.65-106.24 8.39 2.2 51.52 13.43 52.47 13.39M1332.03 58.34c-5.66.17-12.02 36.98-8.54 40.32-.66-.09-1.31-.14-1.95-.24-85.43-13.79-105.8-18-119.51 54.48-19.05 100.75 14.19 110 87.57 116.4-6.6-1.66-11.34 41.45-6.91 42.36h.35c-88.42-12.01-140.52-16.14-122.4-149.91 16.6-122.64 99.62-119.72 171.39-104.36M1010.86 273.94c10.8-6.13 63.86-244.93 71.78-254.6v.2c17.57-.83 56.84.59 66.69 9.55-1.38 9.16-20.31 256.98-11.28 258.34l-.01.78c-6.89-1.31-18.95-3.26-36.62-5.42-.27-5.71 9.41-91.35 10.85-98.53-5.4-2.29-37.29-5.26-44.36-6.68-.37 3.5-14.4 90.14-18.76 99.98-3.84-.76-37.1-3.42-38.26-3.63l-.03.01c-.13.08-.26.12-.38.13l.38-.13zm101.71-206.25c2.15 26.51 2.45 56.27 7.16 80.55-3.06.59-12.3-3.53-16.32-4-4.18-.5-21.41-1.56-27.43-3.05-1.47-12.07 23.58-58.93 33.95-73.58l2.64.08z"/><path d="M856.22 263.16c16.51-174.17 17.7-250.73 7.42-260.93 2.75.25 25.61-.01 27.93 0 135.96.12 106.97 84.41 28.76 122.2l-7.4 3.37c2.51-1.07 4.98-2.2 7.4-3.37l9.79-4.46c85.74-22.27 149.98 160.37-37.42 144.97-9.12-.75-30.39-2.41-36.48-1.78v.01h-.06l.06-.01zm47.39-36.71c2.13-24.04 1.24-64.27-.22-68.93-.31-.96 63.5 27.94 63.47 29.56-.03 1.33-63.25 39.37-63.25 39.37zm35.51-195.22s-44.24 21-44.36 22.58c-.12 1.56 38.83 23.26 44.44 23.69.21.02 3.52-42.07-.08-46.27zM697.57 42.68c4.34-12.74 4.73-29.86-1.04-40.3h-.89c3.17 0 144.23-1.2 149.98-.79v.35c-5.44 10.41-4.95 32.61 0 39.26-2 .11-47.8-.41-56.56 0l-.03 1.15c-9.73 102.11-.21 220 7.11 220.84-5.35-.06-35.78-.36-41.52-.37 11.19-2.54 7.02-152.17-1.4-220.29v-.03c-3.6.18-46.07-.24-54.44.18M611.65 5.5c1.91-.22 68.86-2.72 71.28-2.91-14.81 2.81-21.54 250.82 2.88 260.6-17.62 1.07-36.13.9-53.86 1.97 23.94-3.75-7.32-251.66-20.3-259.66M613.94 266.6c-12.03-2.39-17.36-45.4-6.16-51.53h.01c-8.3.62-79.09 9.65-95.76 10.89-2.02-1.74-7.09-23.23-7.3-25.94-.99-13.34.87-27.93 3.09-42.26 11.68-2.57 32.54-5.06 44.25-3.62-3.2-9.65-4.24-29.03-2.33-38.25-15.32 1.14-31.84 4.26-47.16 5.41-.79-3.07-7.35-35.43-6.81-43.41 20.14-6.33 97.98-10.91 98.11-9.17-11.53-4.04-15.72-53.71-6.82-61.13-6.58.5-136.45 10.8-147.35 13.32 14.71-1.37 33.28 111.08 43.92 256.77l.06-.07c17.49-2.15 122.83-11.65 130.7-10.93"/><path d="M395.64 248.12C476.46 84.45 417.56 16.51 210.95 55.63c-12.71 2.41-43.61 8.42-52.24 11.83v.06c80.63 98.67 90.35 125.06 114.23 183.66 26.13 64.11 71.77 174.1 95.84 386.82 0 0 49.35-7.27 62.27-8.69v-.34c-23.95-4.63-61.74-310.93-72.63-320.51C429 327.24 526.61 600.58 510.97 617.63c24.36-1.55 51.07-4.55 75.72-6.07-40.55-160.97-124.9-311.97-191.44-363.43l.39-.01zm-35.85-70.93c-2.9-12.43-20.07-79.41-21.78-83.79-1.99.13-63.93 53.28-66.48 54.83 28.9 10.13 61.13 21.82 88.26 28.96z"/><path d="M112.79 197.82c128.98-43.86 172.91 112.67 33.25 139.76-3.56.69-72.09 19.1-74.19 19.53 1.17-.43-68.94-247.51-70.35-252.08-.36.02 69-18.82 70.18-18.87 2.35-.5 25.76-4.78 37.61-2.76.18.03.36.06.53.1 22.04 4.23 37.31 17.98 41.61 27.15 17.95 38.29-13.84 69.5-38.64 87.17L90.3 211.95c-1.72.98-2.69 1.55-2.68 1.68l2.68-1.68c4.18-2.39 12.8-7.23 22.49-14.13zm61.32 96.96c.28-2.52-13.12-50.88-15.35-63.18l.05-.53c-3.13-.34-41.87 34.57-50.04 41 7.15 2.54 59.08 23.07 65.6 23.78l-.26-1.07zm-59.63-154.94c-4.56.21-49.26-22.75-53.73-22.99.18 1.13 19.08 63.11 19.96 64.35 2.51-2.59 7.88-8.99 13.53-16 9.05-11.22 20.24-25.36 20.24-25.36z"/></svg>
