<svg xmlns="http://www.w3.org/2000/svg" viewBox="0 0 1597 645" fill-rule="evenodd" clip-rule="evenodd" stroke-linecap="round" stroke-linejoin="round" stroke-miterlimit="1.5">
  <g transform="matrix(1,0,0,1,-3202.82,-1274.32)">
      <g id="BBR" transform="matrix(1,0,0,1,3118.23,1213.92)">
          <g>
              <g id="K" transform="matrix(0.999489,-0.0319695,0.0319695,0.999489,-3176.01,-1133.24)">
                  <path d="M4376.12,1801.77C4376.12,1801.77 4447.03,1737.08 4472.74,1741.33C4470.28,1737.92 4450.45,1683.95 4450.45,1683.95C4415.91,1691.2 4380.38,1726.55 4365.43,1737.89C4361.31,1741.02 4344,1758.95 4340.6,1758.57C4344.25,1721.01 4382.52,1720.54 4385.96,1681.88C4385.96,1681.88 4323.45,1682.26 4306.11,1669.21C4303.07,1666.91 4260.95,1905.05 4260.42,1909.76C4309.94,1908.19 4335.29,1924.58 4335.29,1924.58C4323.45,1861.9 4329.56,1840.09 4330.65,1813.01C4351.6,1890.92 4391.64,1930.95 4399.13,1962.11L4399.14,1962.11C4412.47,1939.57 4467.46,1916.73 4467.14,1916.37C4441.51,1887.37 4398.5,1877.31 4376.12,1801.77Z"/>
              </g>
              <g transform="matrix(1.07092,0.00505778,-0.00472279,0.999989,-3409.1,-1295.33)">
                  <path d="M4088.95,1762.45C4105.31,1644.91 4207.87,1658 4276.63,1671.67C4263.36,1694.88 4258.53,1711.55 4259.48,1741.5C4259.48,1741.5 4159.18,1687.88 4145.07,1767.46C4129.32,1856.36 4251.9,1829.59 4251.9,1829.59C4245.33,1860.9 4239.85,1875.41 4241.55,1907.47C4056.69,1907.85 4088.1,1834.87 4089.03,1762.46"/>
              </g>
              <g id="O" transform="matrix(0.952751,0.0160822,-0.0168773,0.999858,-2899.97,-1338.71)">
                  <path d="M3942.41,1651.39C4085.09,1657.45 4127.81,1901.49 3937.84,1900.19C3765.43,1899.01 3775.86,1644.32 3942.41,1651.39ZM3874.26,1741.21C3881.84,1740.37 3965.91,1740.67 3993.46,1732.84C3985.98,1741.98 3948.4,1811.59 3944.58,1853.64C3936.03,1839.02 3887.14,1760.81 3874.26,1741.21Z"/>
              </g>
              <g id="H" transform="matrix(1,0,0,1,-3118.23,-1213.92)">
                  <path d="M4780.91,1401.17C4738.68,1459.83 4698.11,1648.02 4712.13,1652.43C4709.68,1652.14 4643.3,1633.07 4642.76,1632.91C4656.39,1633.88 4660.8,1552.99 4668.93,1536.49C4666.24,1535.37 4634.47,1527.95 4626.5,1524.44C4622.14,1529.23 4596.73,1619.01 4603.77,1620.93C4604.8,1621.22 4539.84,1608.51 4536.4,1607.26C4549.55,1611.01 4608.69,1370.32 4592.9,1354.34C4592.9,1354.34 4661.89,1365.45 4668.93,1371.86C4644.63,1386.47 4638.61,1453.72 4639.36,1469.45L4639.34,1469.45C4641.02,1470.68 4674.24,1477.8 4681.48,1479.6L4681.48,1479.6C4682.95,1476.14 4718.03,1414.52 4710.13,1383.36C4718.52,1385.56 4779.96,1400.79 4780.91,1400.75"/>
              </g>
              <g id="C" transform="matrix(0.995376,0.0960505,-0.0960505,0.995376,-2956.11,-1638.04)">
                  <path d="M4570.97,1344.85C4566.36,1357.21 4553.94,1404.14 4557.94,1417.48C4557.94,1417.48 4446.24,1348.96 4434.39,1448.3C4416.87,1595.26 4490.95,1520.13 4546.1,1534C4539.5,1532.34 4531.51,1600.75 4535.94,1601.66C4446.55,1583.38 4368.79,1633.73 4380.04,1453.55C4387.75,1330.03 4479.61,1328.29 4570.97,1344.85Z"/>
              </g>
              <g id="A" transform="matrix(1.2259,-0.0682518,0.0555886,0.998454,-4180.2,-920.887)">
                  <path d="M4235.19,1565.67C4250.36,1550.27 4295.39,1316.18 4301.68,1308.9C4301.68,1308.9 4355.26,1317.34 4371.85,1322.68C4370.47,1331.83 4352.28,1544.9 4359.77,1589.07L4315.2,1575.81C4314.93,1570.09 4326.51,1492.11 4327.95,1484.93C4322.55,1482.64 4303.75,1478.67 4296.67,1477.25C4296.3,1480.75 4282.84,1559.45 4278.48,1569.29C4274.64,1568.53 4238.27,1565.72 4235.22,1565.66L4235.19,1565.67ZM4338.49,1362.22C4334.75,1389.77 4332.86,1397.38 4334.92,1421.81C4331.43,1421.38 4313.45,1418.41 4307.43,1416.92C4312.47,1396.66 4319.3,1376.99 4321.02,1359.03L4338.49,1362.22Z"/>
              </g>
              <g id="B" transform="matrix(0.999824,-0.0187651,0.0187651,0.999824,-3155.25,-1135.61)">
                  <path d="M4082.55,1553.89C4099.06,1379.72 4107.23,1302.77 4096.96,1292.56C4099.71,1292.82 4115.58,1293 4117.9,1292.96C4292.67,1289.32 4227.55,1397.2 4136.41,1419.61L4156.81,1413.97C4242.12,1391.81 4282.53,1562.7 4156.83,1558.89C4155.9,1558.86 4088.64,1553.26 4082.55,1553.89L4082.55,1553.9L4082.49,1553.9L4082.55,1553.89ZM4133.94,1521.18C4136.07,1497.14 4138.18,1461.91 4136.72,1457.25C4136.41,1456.29 4184.22,1482.19 4184.19,1483.81C4184.16,1485.14 4133.94,1521.18 4133.94,1521.18ZM4172.45,1325.96C4172.45,1325.96 4137.38,1342.52 4133.09,1347.54C4128.59,1352.82 4172.98,1373.83 4173.53,1368.23C4174.17,1361.74 4174.99,1330.12 4172.45,1325.96Z"/>
              </g>
              <g id="T" transform="matrix(1,0,0,1,-3118.23,-1213.92)">
                  <path d="M3924.9,1363.41C3929.24,1350.67 3917.97,1293.11 3917.97,1293.11C3983.39,1294.77 4005.34,1296 4071.95,1292.32C4071.95,1292.32 4068,1356.28 4072.95,1362.93C4070.95,1363.04 4029.15,1358.52 4020.39,1358.93C4001.91,1367.94 4019.16,1478.27 4037.47,1553.92C4009.76,1550.73 3982.47,1549.64 3959.95,1553.55C3972.2,1479.19 3979.89,1368.69 3969.55,1360.26C3969.55,1360.26 3934.48,1362.99 3926.11,1363.41"/>
              </g>
              <g id="I" transform="matrix(0.998283,0.0585711,-0.0585711,0.998283,-3025.14,-1437.21)">
                  <path d="M3822.98,1296.78C3848.28,1297.52 3866.36,1294.16 3892.7,1291.36C3875.94,1358.29 3910.03,1497.53 3921.03,1551.77C3878.48,1550.7 3852.27,1557.55 3852.27,1557.55C3861.48,1498.32 3848.55,1338 3822.98,1296.78Z"/>
              </g>
              <g id="E" transform="matrix(1,0,0,1,-3118.23,-1213.92)">
                  <path d="M3829.55,1560.41C3829.55,1560.41 3822.44,1506.54 3829.55,1483.8L3734.36,1521.69C3732.34,1519.95 3727.27,1494.46 3727.06,1491.75C3726.07,1478.41 3732.15,1473.82 3734.36,1459.49C3746.05,1456.92 3770.9,1453.43 3782.61,1454.87C3779.41,1445.22 3769.16,1410.84 3771.07,1401.62C3755.75,1402.76 3739.23,1405.88 3723.91,1407.03C3723.12,1403.96 3710.56,1375.6 3711.1,1367.62C3731.24,1361.29 3824.08,1379.71 3824.21,1381.45C3814.02,1366.31 3811.27,1316.41 3813.39,1298.32C3806.81,1298.82 3640.94,1315.12 3630.04,1317.64C3654.63,1311.95 3693.43,1439.69 3681.96,1570.34C3708.07,1563.64 3821.69,1559.69 3829.55,1560.41Z"/>
              </g>
              <g id="R" transform="matrix(0.99975,0.0223383,-0.0223383,0.99975,-3087.48,-1295.91)">
                  <path d="M3621.97,1538.85C3702.79,1375.18 3643.89,1307.24 3437.28,1346.36C3424.57,1348.77 3376.67,1362.78 3368.04,1366.19L3368.04,1366.25C3448.67,1464.92 3459.08,1491.77 3488.27,1547.91C3527.01,1622.43 3556.93,1664.49 3555.11,1874.73C3555.11,1874.73 3624.61,1843.08 3655.38,1847.49C3581.97,1690.8 3599.89,1607.13 3574.75,1585.19C3660.62,1630.23 3700.14,1662.66 3741.84,1833.36C3766.88,1829.81 3796.29,1823.31 3829.55,1826.29C3789,1665.32 3688.12,1590.32 3621.58,1538.86L3621.97,1538.85ZM3592.12,1483.92C3589.22,1471.49 3569.45,1383.51 3567.75,1379.13C3560.01,1384.65 3495.41,1447.41 3492.86,1448.96C3521.76,1459.09 3564.99,1476.78 3592.12,1483.92Z"/>
              </g>
              <g id="B1" serif:id="B" transform="matrix(1,0,0,1,-3118.23,-1213.92)">
                  <path d="M3339.12,1488.55L3339.12,1488.55C3468.1,1444.69 3512.03,1601.22 3372.37,1628.31C3368.81,1629 3300.28,1647.41 3298.18,1647.84C3296.75,1613.79 3226.49,1394.38 3220.83,1398.76C3219.67,1399.67 3296.83,1376.94 3298.01,1376.89C3300.36,1376.39 3323.77,1372.11 3335.62,1374.13C3335.8,1374.16 3335.98,1374.19 3336.15,1374.23C3358.19,1378.46 3373.46,1392.21 3377.76,1401.38C3395.71,1439.67 3363.92,1470.88 3339.12,1488.55L3316.63,1502.68C3314.91,1503.66 3313.94,1504.23 3313.95,1504.36L3316.63,1502.68C3320.81,1500.29 3329.43,1495.45 3339.12,1488.55ZM3393.44,1585.51C3393.72,1582.99 3377.76,1533.8 3377.76,1533.8C3374.63,1533.46 3344.32,1564.99 3336.15,1571.41C3343.3,1573.96 3393.44,1585.51 3393.44,1585.51ZM3338.81,1424.57C3334.25,1424.78 3290.55,1418.82 3286.08,1418.58C3286.26,1419.71 3303.16,1465.69 3304.04,1466.93C3306.55,1464.34 3310.92,1457.94 3316.57,1450.93C3325.62,1439.71 3338.81,1424.57 3338.81,1424.57Z"/>
              </g>
          </g>
      </g>
  </g>
</svg>
