<?xml version="1.0" encoding="UTF-8" standalone="no"?>
<!DOCTYPE svg PUBLIC "-//W3C//DTD SVG 1.1//EN" "http://www.w3.org/Graphics/SVG/1.1/DTD/svg11.dtd">
<svg width="100%" height="100%" viewBox="0 0 149 149" version="1.1" xmlns="http://www.w3.org/2000/svg" xmlns:xlink="http://www.w3.org/1999/xlink" xml:space="preserve" style="fill-rule:evenodd;clip-rule:evenodd;stroke-linejoin:round;stroke-miterlimit:1.41421;">
    <g transform="matrix(1,0,0,1,-25.9201,-5.92043)">
        <g transform="matrix(0.883883,-0.883883,0.798345,0.798345,21.1578,142.579)">
            <path d="M160,10.184C160,4.56 155.882,0 150.802,0C122.578,0 37.422,0 9.198,0C4.118,0 0,4.56 0,10.184C0,10.185 0,10.186 0,10.187C0,15.812 4.118,20.371 9.198,20.371C37.422,20.371 122.578,20.371 150.802,20.371C155.882,20.371 160,15.812 160,10.187C160,10.186 160,10.185 160,10.184Z"/>
        </g>
        <g transform="matrix(0.883883,0.883883,-0.798345,0.798345,37.4209,1.15778)">
            <path d="M160,10.184C160,4.56 155.882,0 150.802,0C122.578,0 37.422,0 9.198,0C4.118,0 0,4.56 0,10.184C0,10.185 0,10.186 0,10.187C0,15.812 4.118,20.371 9.198,20.371C37.422,20.371 122.578,20.371 150.802,20.371C155.882,20.371 160,15.812 160,10.187C160,10.186 160,10.185 160,10.184Z"/>
        </g>
    </g>
</svg>
